<?xml version="1.0" encoding="UTF-8" standalone="no"?>
<!-- Generator: Adobe Illustrator 21.0.0, SVG Export Plug-In . SVG Version: 6.00 Build 0)  -->

<svg
   xmlns:dc="http://purl.org/dc/elements/1.1/"
   xmlns:cc="http://creativecommons.org/ns#"
   xmlns:rdf="http://www.w3.org/1999/02/22-rdf-syntax-ns#"
   xmlns:svg="http://www.w3.org/2000/svg"
   xmlns="http://www.w3.org/2000/svg"
   xmlns:sodipodi="http://sodipodi.sourceforge.net/DTD/sodipodi-0.dtd"
   xmlns:inkscape="http://www.inkscape.org/namespaces/inkscape"
   version="1.1"
   id="Layer_1"
   x="0px"
   y="0px"
   viewBox="0 0 174.1 348.6"
   style="enable-background:new 0 0 174.1 348.6;"
   xml:space="preserve"
   sodipodi:docname="learnmode.svg"
   inkscape:version="0.92.3 (2405546, 2018-03-11)"><metadata
   id="metadata43"><rdf:RDF><cc:Work
       rdf:about=""><dc:format>image/svg+xml</dc:format><dc:type
         rdf:resource="http://purl.org/dc/dcmitype/StillImage" /></cc:Work></rdf:RDF></metadata><defs
   id="defs41" /><sodipodi:namedview
   pagecolor="#ffffff"
   bordercolor="#666666"
   borderopacity="1"
   objecttolerance="10"
   gridtolerance="10"
   guidetolerance="10"
   inkscape:pageopacity="0"
   inkscape:pageshadow="2"
   inkscape:window-width="640"
   inkscape:window-height="480"
   id="namedview39"
   showgrid="false"
   inkscape:zoom="0.67699368"
   inkscape:cx="87.050003"
   inkscape:cy="174.3"
   inkscape:window-x="0"
   inkscape:window-y="0"
   inkscape:window-maximized="0"
   inkscape:current-layer="Layer_1" />
<style
   type="text/css"
   id="style2">
	.st0{fill:#1A1A18;}
</style>
<g
   id="g6">
	<path
   class="st0"
   d="M124.1,345.9h-14.2c-26.1,0-47.4-21.2-47.4-47.4V50.2C62.6,24,83.8,2.8,110,2.8h14.2   c26.1,0,47.4,21.2,47.4,47.4v248.4C171.5,324.7,150.3,345.9,124.1,345.9z M110,5.6c-24.6,0-44.5,20-44.5,44.5v248.4   c0,24.6,20,44.5,44.5,44.5h14.2c24.6,0,44.5-20,44.5-44.5V50.2c0-24.6-20-44.5-44.5-44.5H110V5.6z"
   id="path4" />
</g>
<g
   id="g10">
	<path
   class="st0"
   d="M124.1,336.7h-14.2c-21,0-38.2-17.1-38.2-38.2V50.2c0-21,17.1-38.2,38.2-38.2h14.2c21,0,38.2,17.1,38.2,38.2   v248.4C162.3,319.6,145.2,336.7,124.1,336.7z M110,13.4c-20.3,0-36.7,16.5-36.7,36.7v248.4c0,20.3,16.5,36.7,36.7,36.7h14.2   c20.3,0,36.7-16.5,36.7-36.7V50.2c0-20.3-16.5-36.7-36.7-36.7H110V13.4z"
   id="path8" />
</g>
<g
   id="g14">
	<path
   class="st0"
   d="M31.5,267.8h-19c-5.5,0-9.9-4.5-9.9-9.9V90.8c0-5.5,4.5-9.9,9.9-9.9h18.9c5.5,0,9.9,4.5,9.9,9.9v167.1   C41.4,263.4,36.9,267.8,31.5,267.8z M12.5,83.7c-3.9,0-7.1,3.2-7.1,7.1v167.1c0,3.9,3.2,7.1,7.1,7.1h18.9c3.9,0,7.1-3.2,7.1-7.1   V90.8c0-3.9-3.2-7.1-7.1-7.1H12.5z"
   id="path12" />
</g>
<g
   id="g22">
	<rect
   x="82.4"
   y="56.4"
   width="69.2"
   height="41.3"
   id="rect16" />
	<rect
   x="77.5"
   y="56.4"
   width="3.9"
   height="41.3"
   id="rect18" />
	<rect
   x="152.7"
   y="56.4"
   width="3.9"
   height="41.3"
   id="rect20" />
</g>

</svg>